<mxfile host="Electron" agent="Mozilla/5.0 (X11; Linux x86_64) AppleWebKit/537.36 (KHTML, like Gecko) draw.io/24.7.17 Chrome/128.0.6613.36 Electron/32.0.1 Safari/537.36" version="24.7.17">
  <diagram id="TnqiMQqTGbRa8q9fDKv8" name="Page-2">
    <mxGraphModel dx="1674" dy="955" grid="1" gridSize="10" guides="1" tooltips="1" connect="1" arrows="1" fold="1" page="1" pageScale="1" pageWidth="1200" pageHeight="1600" math="0" shadow="0">
      <root>
        <mxCell id="0" />
        <mxCell id="1" parent="0" />
        <mxCell id="2T6ctf2d0CrDcLej1E1e-1" value="Hero" style="swimlane;fontStyle=1;align=center;verticalAlign=top;childLayout=stackLayout;horizontal=1;startSize=26;horizontalStack=0;resizeParent=1;resizeParentMax=0;resizeLast=0;collapsible=1;marginBottom=0;whiteSpace=wrap;html=1;" parent="1" vertex="1">
          <mxGeometry x="80" y="40" width="360" height="320" as="geometry">
            <mxRectangle x="80" y="40" width="70" height="30" as="alternateBounds" />
          </mxGeometry>
        </mxCell>
        <mxCell id="2T6ctf2d0CrDcLej1E1e-2" value="&lt;div&gt;- name: String&lt;/div&gt;&lt;div&gt;- positionRow: int&lt;/div&gt;&lt;div&gt;- positionCol: int&lt;/div&gt;&lt;div&gt;- health: int&lt;/div&gt;&lt;div&gt;- damage: int&lt;/div&gt;" style="text;strokeColor=none;fillColor=none;align=left;verticalAlign=top;spacingLeft=4;spacingRight=4;overflow=hidden;rotatable=0;points=[[0,0.5],[1,0.5]];portConstraint=eastwest;whiteSpace=wrap;html=1;" parent="2T6ctf2d0CrDcLej1E1e-1" vertex="1">
          <mxGeometry y="26" width="360" height="84" as="geometry" />
        </mxCell>
        <mxCell id="2T6ctf2d0CrDcLej1E1e-3" value="" style="line;strokeWidth=1;fillColor=none;align=left;verticalAlign=middle;spacingTop=-1;spacingLeft=3;spacingRight=3;rotatable=0;labelPosition=right;points=[];portConstraint=eastwest;strokeColor=inherit;" parent="2T6ctf2d0CrDcLej1E1e-1" vertex="1">
          <mxGeometry y="110" width="360" height="8" as="geometry" />
        </mxCell>
        <mxCell id="2T6ctf2d0CrDcLej1E1e-4" value="- getCurrentPositionRow(): int&lt;div&gt;- getCurrentPositionCol(): int&lt;br&gt;&lt;div&gt;+ moveUp(positionRow: int)&lt;/div&gt;&lt;/div&gt;&lt;div&gt;+ moveDown(poitionRow: int)&lt;/div&gt;&lt;div&gt;+ moveLeft(positionCol: int)&lt;/div&gt;&lt;div&gt;+ moveRight(positionCol: int)&lt;/div&gt;&lt;div&gt;- displayHealth(health: int): int&lt;/div&gt;&lt;div&gt;- attack()&lt;/div&gt;&lt;div&gt;- senseMonster(positionRow:int, positionCol:int): boolean&lt;/div&gt;&lt;div&gt;- fightMonster(positionRow: int, positionCol: int): boolean&lt;/div&gt;&lt;div&gt;- defeated(health: int): boolean&lt;/div&gt;&lt;div&gt;- catacombComplete(health:int, positionRow: int, positionCol: int)&lt;/div&gt;&lt;div&gt;- takeDamage(health: int)&lt;/div&gt;" style="text;strokeColor=none;fillColor=none;align=left;verticalAlign=top;spacingLeft=4;spacingRight=4;overflow=hidden;rotatable=0;points=[[0,0.5],[1,0.5]];portConstraint=eastwest;whiteSpace=wrap;html=1;" parent="2T6ctf2d0CrDcLej1E1e-1" vertex="1">
          <mxGeometry y="118" width="360" height="202" as="geometry" />
        </mxCell>
        <mxCell id="2T6ctf2d0CrDcLej1E1e-5" value="Monster" style="swimlane;fontStyle=1;align=center;verticalAlign=top;childLayout=stackLayout;horizontal=1;startSize=26;horizontalStack=0;resizeParent=1;resizeParentMax=0;resizeLast=0;collapsible=1;marginBottom=0;whiteSpace=wrap;html=1;" parent="1" vertex="1">
          <mxGeometry x="80" y="400" width="360" height="200" as="geometry" />
        </mxCell>
        <mxCell id="2T6ctf2d0CrDcLej1E1e-6" value="- name: String&lt;div&gt;- positionRow: int&lt;/div&gt;&lt;div&gt;- positionCol: int&lt;/div&gt;&lt;div&gt;- health: int&lt;/div&gt;&lt;div&gt;- damage: int&lt;/div&gt;" style="text;strokeColor=none;fillColor=none;align=left;verticalAlign=top;spacingLeft=4;spacingRight=4;overflow=hidden;rotatable=0;points=[[0,0.5],[1,0.5]];portConstraint=eastwest;whiteSpace=wrap;html=1;" parent="2T6ctf2d0CrDcLej1E1e-5" vertex="1">
          <mxGeometry y="26" width="360" height="94" as="geometry" />
        </mxCell>
        <mxCell id="2T6ctf2d0CrDcLej1E1e-7" value="" style="line;strokeWidth=1;fillColor=none;align=left;verticalAlign=middle;spacingTop=-1;spacingLeft=3;spacingRight=3;rotatable=0;labelPosition=right;points=[];portConstraint=eastwest;strokeColor=inherit;" parent="2T6ctf2d0CrDcLej1E1e-5" vertex="1">
          <mxGeometry y="120" width="360" height="8" as="geometry" />
        </mxCell>
        <mxCell id="2T6ctf2d0CrDcLej1E1e-8" value="- attack()&lt;div&gt;- displayHealth(health: int): int&lt;/div&gt;&lt;div&gt;- defeated(health: int): boolean&lt;/div&gt;&lt;div&gt;- takeDamage(health: int)&lt;/div&gt;" style="text;strokeColor=none;fillColor=none;align=left;verticalAlign=top;spacingLeft=4;spacingRight=4;overflow=hidden;rotatable=0;points=[[0,0.5],[1,0.5]];portConstraint=eastwest;whiteSpace=wrap;html=1;" parent="2T6ctf2d0CrDcLej1E1e-5" vertex="1">
          <mxGeometry y="128" width="360" height="72" as="geometry" />
        </mxCell>
        <mxCell id="2T6ctf2d0CrDcLej1E1e-9" value="Catacomb" style="swimlane;fontStyle=1;align=center;verticalAlign=top;childLayout=stackLayout;horizontal=1;startSize=26;horizontalStack=0;resizeParent=1;resizeParentMax=0;resizeLast=0;collapsible=1;marginBottom=0;whiteSpace=wrap;html=1;" parent="1" vertex="1">
          <mxGeometry x="520" y="300" width="280" height="130" as="geometry" />
        </mxCell>
        <mxCell id="2T6ctf2d0CrDcLej1E1e-10" value="- catacombSize: int" style="text;strokeColor=none;fillColor=none;align=left;verticalAlign=top;spacingLeft=4;spacingRight=4;overflow=hidden;rotatable=0;points=[[0,0.5],[1,0.5]];portConstraint=eastwest;whiteSpace=wrap;html=1;" parent="2T6ctf2d0CrDcLej1E1e-9" vertex="1">
          <mxGeometry y="26" width="280" height="34" as="geometry" />
        </mxCell>
        <mxCell id="2T6ctf2d0CrDcLej1E1e-11" value="" style="line;strokeWidth=1;fillColor=none;align=left;verticalAlign=middle;spacingTop=-1;spacingLeft=3;spacingRight=3;rotatable=0;labelPosition=right;points=[];portConstraint=eastwest;strokeColor=inherit;" parent="2T6ctf2d0CrDcLej1E1e-9" vertex="1">
          <mxGeometry y="60" width="280" height="8" as="geometry" />
        </mxCell>
        <mxCell id="2T6ctf2d0CrDcLej1E1e-12" value="&lt;div&gt;&lt;div&gt;- spawnMonster(catacombSize:int): ArrayList&lt;/div&gt;&lt;div&gt;- setMonsterLocation(catacombSize: int)&lt;/div&gt;&lt;/div&gt;&lt;div&gt;- removeMonster()&lt;/div&gt;" style="text;strokeColor=none;fillColor=none;align=left;verticalAlign=top;spacingLeft=4;spacingRight=4;overflow=hidden;rotatable=0;points=[[0,0.5],[1,0.5]];portConstraint=eastwest;whiteSpace=wrap;html=1;" parent="2T6ctf2d0CrDcLej1E1e-9" vertex="1">
          <mxGeometry y="68" width="280" height="62" as="geometry" />
        </mxCell>
        <mxCell id="xPWUdHNVjYAzvZX_uKAf-1" value="Main" style="swimlane;fontStyle=1;align=center;verticalAlign=top;childLayout=stackLayout;horizontal=1;startSize=26;horizontalStack=0;resizeParent=1;resizeParentMax=0;resizeLast=0;collapsible=1;marginBottom=0;whiteSpace=wrap;html=1;" parent="1" vertex="1">
          <mxGeometry x="480" y="80" width="360" height="140" as="geometry" />
        </mxCell>
        <mxCell id="xPWUdHNVjYAzvZX_uKAf-2" value="&amp;nbsp;" style="text;strokeColor=none;fillColor=none;align=left;verticalAlign=top;spacingLeft=4;spacingRight=4;overflow=hidden;rotatable=0;points=[[0,0.5],[1,0.5]];portConstraint=eastwest;whiteSpace=wrap;html=1;" parent="xPWUdHNVjYAzvZX_uKAf-1" vertex="1">
          <mxGeometry y="26" width="360" height="24" as="geometry" />
        </mxCell>
        <mxCell id="xPWUdHNVjYAzvZX_uKAf-3" value="" style="line;strokeWidth=1;fillColor=none;align=left;verticalAlign=middle;spacingTop=-1;spacingLeft=3;spacingRight=3;rotatable=0;labelPosition=right;points=[];portConstraint=eastwest;strokeColor=inherit;" parent="xPWUdHNVjYAzvZX_uKAf-1" vertex="1">
          <mxGeometry y="50" width="360" height="8" as="geometry" />
        </mxCell>
        <mxCell id="xPWUdHNVjYAzvZX_uKAf-4" value="+ getCatacombSize(): int&lt;div&gt;&lt;div&gt;+ generateCatacomb(catacombSize: int)&lt;div&gt;+ drawCatacomb()&lt;/div&gt;&lt;div&gt;+ moveHero()&lt;/div&gt;&lt;/div&gt;&lt;/div&gt;" style="text;strokeColor=none;fillColor=none;align=left;verticalAlign=top;spacingLeft=4;spacingRight=4;overflow=hidden;rotatable=0;points=[[0,0.5],[1,0.5]];portConstraint=eastwest;whiteSpace=wrap;html=1;" parent="xPWUdHNVjYAzvZX_uKAf-1" vertex="1">
          <mxGeometry y="58" width="360" height="82" as="geometry" />
        </mxCell>
      </root>
    </mxGraphModel>
  </diagram>
</mxfile>
